<?xml version="1.0" encoding="UTF-8" standalone="no"?>
<svg xmlns="http://www.w3.org/2000/svg" width="570" height="570" version="1.0">
<path d="M 17.540514,153.05863 L 195.64487,580.53647 L 587.54052,580.5586 L 587.51842,188.67814 L 160.04612,10.5586 L 346.92295,197.42825 C 397.35385,190.31732 450.40177,206.15345 489.16335,244.91352 C 554.65669,310.40434 554.67869,416.6723 489.18545,482.16309 C 423.69201,547.65399 317.37576,547.67609 251.88242,482.18525 C 213.12084,443.42518 197.29778,390.36569 204.41745,339.92828 L 17.540514,153.05863 z M 281.40441,274.43442 C 258.59159,297.24637 244.47985,328.7696 244.47985,363.54939 C 244.47985,433.10904 300.9605,489.54336 370.52288,489.54329 C 440.08527,489.54331 496.52172,433.10899 496.52172,363.54942 C 496.52172,293.98971 440.08517,237.51126 370.52288,237.51125 C 335.74174,237.5112 304.21733,251.62247 281.40441,274.43442 z" transform="translate(-17.540514,-10.5586)"/>
</svg>
